<svg width="315" height="512" viewBox="0 0 315 512" fill="none" xmlns="http://www.w3.org/2000/svg">
<path d="M148.477 3.14597C149.793 2.42309 152.424 1.37164 154.232 0.780192C156.041 0.188747 158.425 -0.139833 159.576 0.0573153C160.727 0.254464 163.44 1.04306 165.742 1.89736C168.126 2.75167 172.237 5.24888 175.69 7.87753C178.896 10.4405 183.911 15.4349 186.953 19.0493C189.912 22.6636 194.763 29.4981 197.722 34.1639C200.6 38.8955 204.299 45.6643 205.861 49.2786C207.424 52.893 209.725 59.2675 213.343 70.9649L213.836 189.582L213.838 190.241C214.247 306.624 214.248 306.844 214.658 144.895L217.453 139.507C218.933 136.484 222.797 129.189 225.921 123.209C229.045 117.229 232.087 111.183 232.663 109.737C233.238 108.292 234.636 105.663 235.869 103.823C237.595 101.26 238.582 100.471 240.308 100.406C241.624 100.274 243.35 100.537 244.255 100.866C245.159 101.26 246.803 103.1 247.872 105.006C248.941 106.846 250.503 110.329 251.243 112.695C252.065 115.06 253.38 118.149 254.202 119.595C255.024 121.041 258.313 127.152 261.519 133.264C264.643 139.31 267.192 144.633 267.192 145.093C267.11 145.487 267.11 148.444 267.274 157.382H273.029V161.653C273.029 164.676 272.7 166.056 271.878 166.385C270.891 166.845 270.645 181.434 270.234 368.659L284.456 380.159C292.267 386.468 299.666 392.711 300.981 393.959C302.296 395.208 304.598 398.494 306.16 401.188C307.805 403.882 310.024 408.745 311.175 412.031C312.326 415.317 313.231 418.997 313.148 420.246C313.148 421.494 313.395 424.583 313.724 427.146C314.217 430.629 314.135 432.272 313.231 433.98C312.573 435.229 311.175 436.74 310.024 437.398C308.545 438.186 305.092 438.712 298.104 439.238C292.678 439.566 284.374 440.092 279.606 440.289C274.837 440.486 269.987 440.815 268.672 441.012C267.192 441.209 266.616 441.603 266.863 442.261C267.11 442.786 266.945 443.641 266.452 444.101C266.041 444.495 265.712 446.795 265.712 449.161C265.712 451.527 265.63 454.155 265.63 455.075C265.548 455.995 265.548 458.033 265.63 459.675V459.677C265.63 461.32 265.63 464.145 265.548 465.918C265.548 467.758 265.465 469.927 265.548 470.847C265.548 471.767 267.027 474.001 268.754 475.776C270.48 477.616 272.7 480.967 273.687 483.333C274.755 485.699 275.824 489.445 276.153 491.745C276.646 495.096 276.482 496.016 275.495 496.476C274.837 496.805 271.549 497.134 268.261 497.134C265.054 497.134 262.341 497.331 262.341 497.659C262.341 497.922 263.41 500.354 264.808 503.048C266.123 505.742 267.192 508.634 267.274 510.934H240.555C219.92 510.934 213.754 510.737 213.425 510.145C213.178 509.685 214.083 506.794 215.48 503.705L215.596 503.433C216.863 500.46 217.947 497.914 217.947 497.659C217.947 497.331 214.576 497.134 203.148 497.134V494.702C203.148 493.322 203.724 490.496 204.382 488.459C205.039 486.356 206.601 483.267 207.752 481.559C208.903 479.785 210.959 476.959 212.274 475.119C214.494 472.096 214.658 471.439 214.329 466.904C214.083 464.21 213.918 461.45 213.836 460.858V455.732V451.001C213.836 450.541 214 449.095 214.247 447.846C214.576 446.335 214.412 445.218 213.672 444.692C213.096 444.232 211.699 443.904 208.739 444.232L208.903 468.876H200.682C192.543 468.876 192.461 468.876 192.954 470.387C193.201 471.176 193.776 473.87 194.352 476.302C195.338 480.77 195.338 480.836 193.283 482.019C192.132 482.676 189.008 483.53 186.295 483.859C183.582 484.187 177.663 484.385 173.141 484.253L172.829 484.244C168.409 484.116 163.991 483.987 162.947 483.859C161.056 483.662 160.891 483.925 159.987 488.262C159.494 490.825 158.754 493.256 158.507 493.716C158.178 494.111 157.438 494.505 156.863 494.505C156.37 494.571 155.301 494.045 154.479 493.388C153.739 492.731 152.835 490.759 152.506 488.919C152.177 487.145 151.93 485.108 152.012 484.516C152.095 483.859 151.93 483.333 151.519 483.333C151.19 483.333 149.793 483.727 148.477 484.319C146.669 485.042 143.791 485.305 137.79 485.239C133.268 485.173 127.184 484.713 124.225 484.253C121.265 483.727 118.305 482.873 117.648 482.347C116.579 481.493 116.579 480.704 117.401 477.222C117.894 474.987 118.552 472.359 119.292 469.533L103.261 469.204V456.718C103.261 445.941 103.096 444.232 102.027 444.429C101.37 444.561 100.465 445.021 100.137 445.415C99.8077 445.875 99.7255 447.255 99.9721 448.504C100.219 449.752 100.383 451.132 100.383 451.461C100.301 451.789 100.137 453.761 99.8899 455.732C99.6433 457.704 99.8077 459.675 100.219 460.004C100.63 460.333 100.712 461.253 100.301 461.975C99.9721 462.698 99.6433 465.327 99.5611 467.89C99.4789 472.096 99.7255 472.687 101.945 474.79C103.343 476.039 105.398 478.602 106.549 480.376C107.618 482.216 109.18 485.896 109.838 488.59C110.577 491.285 111.071 494.242 110.906 495.162C110.66 496.739 110.331 496.805 103.918 497.134C100.219 497.331 97.0125 497.659 96.7658 497.988C96.5192 498.251 97.6702 500.945 99.3144 504.034C101.863 508.634 102.274 509.817 101.37 510.474C100.63 511.065 93.3951 511.328 74.4863 511.46C50.4804 511.591 48.5073 511.525 48.014 510.474C47.6851 509.751 48.3428 507.32 49.576 504.691C50.727 502.128 51.878 499.565 52.2068 498.974C52.6179 497.922 51.9602 497.791 37.4908 497.462L37.6553 493.716C37.8197 491.613 38.6418 488.065 39.6284 485.83C40.5327 483.53 42.9168 479.916 48.1784 473.804L48.4251 465.59C48.5895 461.055 48.6717 456.784 48.6717 456.061C48.6717 455.338 48.5073 452.249 48.2606 449.161C47.9318 446.072 47.6852 442.984 47.6852 442.261C47.6029 441.012 46.452 440.881 5.42807 438.581L3.12612 436.675C1.89294 435.558 0.906395 434.112 0.906395 433.389C0.906395 432.666 0.824183 431.417 0.659758 430.629C0.495334 429.775 0.74197 428.066 1.07082 426.817C1.39967 425.569 1.81073 422.48 2.05737 419.917C2.304 417.354 3.45497 412.82 4.60594 409.731C5.75692 406.643 7.97665 401.911 9.62089 399.217C12.3339 394.879 14.4714 392.776 44.4789 368.659V267.325C44.4789 177.622 44.3144 165.925 43.2457 165.925C42.2591 165.925 42.0125 165.005 42.0125 161.325C42.0125 158.104 42.3414 156.724 42.9991 156.659C43.5745 156.593 44.8077 156.527 45.7121 156.462C47.1919 156.396 47.3563 155.804 47.7674 150.153C48.0962 145.29 48.7539 142.924 50.4804 139.638C51.7135 137.272 53.1112 134.775 53.5222 134.052C53.9333 133.329 55.002 131.424 55.8242 129.781C56.7285 128.138 58.9482 123.932 60.8391 120.449C62.6478 116.9 64.2098 113.812 64.2098 113.549C64.2098 113.22 65.0319 111.38 66.1007 109.409C67.0872 107.437 68.7315 104.677 69.8002 103.363C71.2801 101.326 72.1022 100.866 74.0753 100.866C75.4729 100.866 77.1993 101.391 77.9392 102.049C78.6792 102.64 80.159 104.677 81.1455 106.452C82.2143 108.292 83.6119 111.38 84.2696 113.352C84.9273 115.323 87.6403 121.106 90.3533 126.166C92.9841 131.227 96.2726 137.404 99.9721 144.567L100.383 109.08C100.794 78.128 101.041 72.9364 102.356 68.3363C103.178 65.4448 104.905 60.1218 106.138 56.5074C107.453 52.893 109.098 48.7529 109.838 47.3072C110.66 45.8614 112.468 42.5756 113.948 40.0784C115.428 37.5812 118.799 32.521 121.347 28.9067C123.978 25.2923 128.582 19.7064 131.624 16.4206C134.666 13.1348 139.105 9.12613 141.572 7.48323C144.038 5.84033 147.162 3.86885 148.477 3.14597Z" fill="#464646"/>
<path fill-rule="evenodd" clip-rule="evenodd" d="M157.767 2.94922C158.754 2.94922 160.316 3.60638 161.22 4.46069C162.124 5.24928 164.18 7.94364 165.659 10.5066C167.221 13.0695 169.441 17.9325 170.592 21.3497C171.743 24.7669 173.223 30.3528 173.881 33.7043C174.62 36.9901 175.196 40.1445 175.196 40.5388C175.196 41.196 171.332 41.3931 158.507 41.3931C149.381 41.3931 138.036 41.656 133.268 41.9188C128.499 42.2474 122.745 42.7074 120.525 43.036C118.223 43.4303 116.332 43.6275 116.168 43.496C116.085 43.4303 117.154 41.2617 118.716 38.7645C120.196 36.2673 123.485 31.3386 126.033 27.9213C128.664 24.5041 133.103 19.3125 135.981 16.421C138.858 13.5295 142.887 10.1123 144.86 8.79795C146.833 7.48363 150.121 5.57786 152.177 4.65784C154.232 3.73781 156.698 2.94922 157.685 2.94922L157.767 2.94922ZM165.413 4.9207C165.824 4.9207 167.961 6.03787 170.099 7.41791C172.319 8.79795 175.607 11.4266 177.416 13.2009C179.307 14.9753 182.513 18.4582 184.65 21.0211C186.788 23.5841 191.063 29.6957 194.269 34.6901C197.393 39.6188 199.86 43.8246 199.695 43.956C199.613 44.1532 198.051 44.0218 196.242 43.6932C194.434 43.3646 191.063 42.9703 188.843 42.7074C186.541 42.5103 183.088 42.1817 177.334 41.656L176.183 35.9387C175.607 32.7843 174.374 27.8556 173.552 24.9641C172.73 22.0726 171.25 17.801 170.263 15.4353C169.359 13.0695 167.632 9.8494 166.564 8.2065C165.413 6.5636 164.591 5.18356 164.591 5.05213C164.591 4.98642 164.919 4.9207 165.413 4.9207ZM162.7 43.5617C171.908 43.6275 175.36 43.8903 175.607 44.4818C175.854 44.9418 176.265 47.1104 176.511 49.279C176.758 51.4477 177.169 67.2852 177.416 84.4371C177.662 101.589 177.662 116.507 176.922 119.595L155.383 119.727C143.462 119.792 129.157 120.121 123.485 120.581C117.812 120.975 111.728 121.567 109.919 121.895C108.111 122.224 105.973 122.618 105.151 122.815C103.836 123.21 103.754 121.895 103.754 101.72C103.754 89.8258 104.165 77.6684 104.576 74.5797C105.069 71.4911 106.22 66.6281 107.124 63.7366C108.111 60.8451 109.673 56.2449 110.824 53.5506C111.893 50.8562 113.372 48.1619 114.195 47.5704C115.017 46.979 116.99 46.1904 118.552 45.7961C120.114 45.4018 123.073 44.8761 125.129 44.6132C127.184 44.3503 133.679 43.956 139.516 43.7589C145.353 43.5617 155.876 43.4303 162.7 43.496V43.5617ZM177.662 44.416H181.773C184.075 44.416 188.843 44.7446 192.296 45.2046C196.653 45.7304 199.284 46.4532 200.435 47.3733C201.422 48.0961 202.901 50.5934 203.888 52.9591C204.875 55.3249 206.354 59.5965 207.259 62.488C208.163 65.3795 209.396 70.2425 209.972 73.3311C210.712 77.2741 210.958 85.2914 210.547 122.947L206.683 122.224C204.546 121.764 197.558 121.041 179.553 119.661L179.142 86.8029C178.896 68.731 178.484 51.7762 178.238 49.1476L177.662 44.416ZM241.623 102.903C242.199 102.903 243.185 103.626 243.843 104.415C244.419 105.203 245.734 107.832 246.721 110.132C247.625 112.498 248.365 114.469 248.2 114.535C248.118 114.535 244.994 114.732 241.212 114.864C237.102 114.995 234.471 114.864 234.471 114.404C234.471 114.075 235.211 112.169 236.197 110.132C237.102 108.161 238.499 105.729 239.239 104.743C239.897 103.758 240.966 102.903 241.623 102.903ZM74.5682 103.626C74.9793 103.626 75.9658 104.283 76.7058 105.072C77.4457 105.926 78.6788 108.161 79.501 110.132C80.3231 112.169 81.063 114.141 81.2274 114.601C81.4741 115.192 79.7476 115.389 74.5682 115.389C70.4576 115.389 67.5802 115.127 67.5802 114.732C67.5802 114.404 68.4023 112.432 69.3067 110.329C70.2932 108.226 71.6908 105.926 72.4307 105.072C73.1706 104.283 74.075 103.626 74.5682 103.626ZM242.281 116.178C244.583 116.112 247.049 116.441 248.036 116.967C248.94 117.492 250.338 119.004 251.078 120.45C251.818 121.83 254.695 127.153 257.326 132.147C259.957 137.207 262.505 142.136 262.834 142.99C263.245 144.042 263.245 144.502 262.752 144.239C262.341 143.976 259.381 143.582 256.257 143.319C253.051 143.056 246.392 142.859 241.459 142.859C236.444 142.859 229.538 143.056 226.003 143.253C221.975 143.516 219.673 143.45 219.673 142.99C219.673 142.662 221.317 139.179 223.372 135.301C225.428 131.424 228.305 126.035 229.703 123.275C231.1 120.581 232.662 118.018 233.073 117.624C233.484 117.164 234.8 116.704 235.951 116.572C237.184 116.375 239.979 116.244 242.281 116.178ZM74.4038 116.769C77.6101 116.769 80.6519 116.967 81.1452 117.229C81.5563 117.492 82.3784 118.478 82.9539 119.332C83.4472 120.252 84.6803 122.355 85.5025 123.932C86.4068 125.575 89.0376 130.57 91.3395 134.973C93.6415 139.376 95.5323 143.187 95.5323 143.319C95.5323 143.516 93.2304 143.45 90.353 143.187C87.5578 142.924 80.0765 142.662 73.7461 142.662C67.4158 142.662 60.0989 142.924 57.4681 143.187C54.9195 143.45 52.782 143.516 52.782 143.319C52.782 143.187 54.5907 139.573 56.7282 135.301C58.9479 131.03 61.6609 125.838 62.7297 123.735C63.7984 121.632 65.5249 119.201 66.5937 118.347C68.2379 116.901 69.1422 116.769 74.4038 116.769ZM157.192 120.844C163.768 120.778 170.921 120.975 177.334 121.632V140.559C177.334 150.942 177.169 159.485 176.922 159.485C176.676 159.485 175.854 158.631 175.114 157.645C174.374 156.659 172.319 154.556 170.592 152.913C168.866 151.336 165.988 149.167 164.18 148.116C161.878 146.802 159.905 146.276 157.603 146.276C155.383 146.276 153.41 146.802 151.437 147.985C149.875 148.905 147.408 150.745 146.011 152.125C144.613 153.439 141.9 156.462 139.927 158.762C138.036 161.128 134.501 166.319 132.117 170.262C129.65 174.271 126.937 179.725 126.033 182.42C125.129 185.18 123.402 191.554 122.251 196.549C121.1 201.609 119.785 210.218 119.374 215.606C118.963 221.061 118.223 227.107 117.73 229.078C117.319 231.115 116.003 237.293 114.852 242.879C113.783 248.53 112.057 256.942 111.153 261.608C110.166 266.339 109.262 270.939 109.097 271.794C108.933 272.714 107.782 278.365 106.631 284.28C105.48 290.26 104.329 295.451 104.165 295.78C104 296.174 103.836 257.928 103.754 125.313L106.384 124.327C107.864 123.867 112.057 123.078 115.674 122.684C119.292 122.224 127.431 121.632 133.761 121.37C140.091 121.172 150.615 120.91 157.192 120.844ZM178.402 121.304L181.197 121.37C182.677 121.37 187.939 121.632 192.954 122.027C197.887 122.355 203.888 123.144 206.272 123.67C208.656 124.195 210.629 124.918 210.629 125.247C210.629 125.641 210.629 129.913 210.629 134.776C210.629 139.704 210.629 177.294 210.629 218.432C210.629 259.57 210.465 293.02 210.301 292.823C210.136 292.691 208.41 285.265 206.601 276.394C204.71 267.588 203.066 259.702 202.901 258.979C202.737 258.256 202.408 256.679 202.079 255.365C201.833 254.116 201.422 252.079 201.175 250.764C200.928 249.516 200.517 247.742 200.353 246.821C200.106 245.967 199.777 244.193 199.531 242.879C199.202 241.63 198.298 237.358 197.393 233.35C196.489 229.407 195.42 220.667 195.009 213.963C194.598 207.326 193.694 199.046 193.036 195.563C192.296 192.146 191.556 188.597 191.31 187.677C191.145 186.823 189.994 183.8 188.843 180.974C187.692 178.148 185.061 173.022 179.224 163.034L178.402 121.304ZM69.9644 144.436C73.8283 144.37 81.063 144.567 85.9957 145.027C91.0107 145.422 95.6968 146.013 96.5189 146.342C97.8343 146.933 97.9165 148.379 97.9165 179.134L91.1751 178.674C87.3933 178.411 79.0077 178.148 72.4307 178.148C65.8537 178.148 58.2902 178.345 50.6445 178.805V163.165C50.6445 154.556 50.8911 147.13 51.22 146.736C51.5488 146.342 54.344 145.684 57.3859 145.29C60.4277 144.962 66.1004 144.567 69.9644 144.436ZM243.432 144.699C247.707 144.764 253.626 145.027 256.586 145.29C259.546 145.553 262.423 146.145 262.999 146.539C263.821 147.13 264.067 151.007 263.985 179.463L260.697 179.003C258.888 178.74 252.722 178.345 246.967 178.148C241.13 177.885 232.745 178.017 228.223 178.411C223.701 178.74 219.344 179.2 218.604 179.463C217.206 179.791 217.124 178.74 217.042 147.262L219.344 146.473C220.659 146.013 224.77 145.422 228.634 145.159C232.498 144.83 239.157 144.633 243.432 144.699ZM157.274 148.247C157.603 148.247 158.918 148.707 160.233 149.167C161.467 149.693 163.029 150.613 163.686 151.205C164.837 152.19 164.344 152.256 157.603 152.256C153.492 152.256 150.532 151.993 151.026 151.665C151.437 151.402 152.834 150.482 154.15 149.693C155.465 148.905 156.863 148.247 157.274 148.247ZM155.712 155.542C160.316 155.542 165.413 155.673 166.975 155.87C169.523 156.199 170.345 156.856 173.798 161.325C175.936 164.085 179.142 169.145 180.951 172.562C182.842 176.045 184.157 178.871 184.075 178.937C183.91 179.003 182.348 178.805 180.54 178.477C178.731 178.214 171.332 177.754 164.097 177.491C156.616 177.228 146.668 177.36 141.078 177.754C135.652 178.148 131.13 178.411 131.13 178.345C131.048 178.214 132.61 175.388 134.665 171.905C136.721 168.488 138.529 165.531 138.694 165.334C138.858 165.202 139.269 165.202 139.516 165.334C139.763 165.531 138.94 167.634 137.789 169.934C136.638 172.299 135.899 174.402 136.145 174.534C136.392 174.731 137.789 174.468 139.269 173.877C141.325 173.154 145.353 172.891 157.52 172.891C169.688 172.891 173.716 173.154 175.854 173.877C177.334 174.468 178.731 174.731 178.896 174.534C179.142 174.402 178.402 172.168 177.169 169.605C175.936 167.108 174.538 164.611 174.045 164.151C173.47 163.494 171.825 163.296 168.948 163.494C166.646 163.625 164.097 164.151 163.275 164.676C162.371 165.334 160.069 165.728 157.192 165.728C154.479 165.728 152.259 165.334 151.766 164.874C151.354 164.414 148.641 163.822 145.764 163.559C142.969 163.296 140.667 162.968 140.667 162.902C140.667 162.836 141.571 161.653 142.558 160.273C143.626 158.893 145.189 157.316 145.928 156.659C147.079 155.739 148.888 155.542 155.712 155.542ZM45.7118 158.105C47.6026 158.105 47.7671 158.368 47.7671 161.391C47.7671 164.479 47.6026 164.676 45.7118 164.676C43.8209 164.676 43.6564 164.479 43.6564 161.391C43.6564 158.368 43.8209 158.105 45.7118 158.105ZM269.329 158.105C271.22 158.105 271.384 158.368 271.384 161.391C271.384 163.494 270.973 164.808 270.398 164.939C269.822 165.071 268.836 165.071 268.342 164.939C267.685 164.808 267.274 163.494 267.274 161.391C267.274 158.368 267.438 158.105 269.329 158.105ZM146.339 164.939C148.395 165.136 150.203 165.662 150.286 165.991C150.368 166.385 153.163 166.714 156.863 166.714C161.138 166.714 163.604 166.451 164.262 165.859C164.755 165.399 166.893 164.939 168.948 164.874C172.647 164.742 172.73 164.742 174.374 167.502C175.278 169.014 176.018 170.788 176.018 171.445C176.018 172.234 175.607 172.497 174.62 172.168C173.798 171.905 167.386 171.642 160.398 171.445C153.41 171.314 145.682 171.379 143.298 171.708C139.269 172.234 139.023 172.168 139.351 170.919C139.598 170.197 140.42 168.488 141.16 167.108C142.476 164.611 142.558 164.611 146.339 164.939ZM46.9449 165.991C47.4382 165.991 47.7671 168.751 47.7671 172.891C47.7671 177.097 47.4382 179.791 46.9449 179.791C46.4517 179.791 46.1228 177.097 46.1228 172.891C46.1228 168.751 46.4517 165.991 46.9449 165.991ZM268.096 166.648C268.589 166.648 268.918 169.277 268.918 173.22C268.918 177.162 268.589 179.791 268.096 179.791C267.603 179.791 267.274 177.162 267.274 173.22C267.274 169.277 267.603 166.648 268.096 166.648ZM155.054 178.608C160.48 178.542 169.03 178.805 173.963 179.2C178.978 179.594 183.664 180.185 184.486 180.514C185.39 180.908 186.377 183.011 187.446 186.888C188.35 190.043 189.501 194.709 189.994 197.206C190.487 199.769 191.145 205.946 192.049 220.009L188.761 219.549C186.952 219.352 181.197 218.892 176.018 218.629C170.839 218.301 159.905 218.235 151.766 218.366C143.626 218.564 134.583 218.958 131.624 219.286C128.664 219.615 125.375 220.075 124.224 220.272C122.169 220.601 122.169 220.535 122.416 216.461C122.498 214.226 122.991 209.955 123.485 207.063C123.896 204.172 125.047 198.717 125.951 194.906C126.937 191.16 128.171 186.428 128.828 184.391C129.486 182.42 130.308 180.58 130.637 180.317C130.966 180.054 134.337 179.528 138.2 179.265C142.064 178.937 149.628 178.674 155.054 178.608ZM76.1303 180.12C85.1736 180.251 93.8059 180.645 97.9165 181.763V249.779L93.5593 249.384C91.2573 249.187 82.7895 248.99 74.8971 248.99C67.0047 248.99 58.3724 249.187 55.8239 249.384C51.631 249.779 51.1378 249.713 50.8089 248.464C50.6445 247.742 50.5623 232.495 50.5623 214.555C50.6445 196.614 50.9733 181.631 51.3022 181.368C51.7132 181.04 53.7686 180.58 55.8239 180.383C57.9614 180.12 67.0869 179.988 76.1303 180.12ZM244.254 180.185C251.736 180.317 259.135 180.645 263.574 181.5L263.985 249.122H217.124V215.935C217.042 189.649 217.289 182.617 218.111 181.96C218.686 181.5 221.81 180.843 224.934 180.514C228.141 180.185 236.773 180.054 244.254 180.185ZM46.9449 181.763C47.5204 181.763 47.7671 183.866 47.6026 187.414C47.4382 190.569 47.1094 193.197 46.7805 193.329C46.3694 193.526 46.1228 190.963 46.1228 187.677C46.1228 184.063 46.4517 181.763 46.9449 181.763ZM46.6983 195.826C47.1094 196.089 47.356 198.52 47.356 201.149C47.356 203.843 47.1094 206.275 46.6983 206.538C46.3695 206.866 46.1228 204.435 46.1228 201.149C46.1228 197.929 46.3695 195.497 46.6983 195.826ZM46.6983 208.969C47.1094 209.232 47.2738 211.926 47.1094 214.883C46.9449 217.841 46.6983 220.404 46.4517 220.535C46.2872 220.732 46.1228 218.104 46.1228 214.621C46.1228 211.203 46.3695 208.64 46.6983 208.969ZM163.686 220.929C172.976 221.061 182.76 221.455 185.473 221.849C188.186 222.244 190.981 222.967 191.638 223.558C192.707 224.412 192.954 227.895 193.447 264.236L191.556 263.776C190.487 263.513 186.295 262.79 182.184 262.199C176.922 261.41 169.934 261.148 157.52 261.148C145.189 261.148 138.2 261.41 132.857 262.199C128.828 262.79 124.635 263.448 121.758 263.908V224.478L123.649 223.558C124.635 223.098 126.773 222.441 128.335 222.178C129.897 221.915 134.748 221.521 139.023 221.258C143.298 220.929 154.396 220.864 163.686 220.929ZM46.7805 222.507C47.1094 222.507 47.2738 224.412 47.1094 226.647C47.0271 228.881 46.7805 231.641 46.6161 232.693C46.5339 233.81 46.3695 231.97 46.2872 228.618C46.205 225.267 46.3694 222.507 46.7805 222.507ZM46.6983 239.264C46.8627 241.104 46.8627 243.733 46.6983 245.179C46.5339 246.624 46.4517 245.179 46.4517 241.893C46.4517 238.673 46.5339 237.49 46.6983 239.264ZM118.634 244.193C118.963 244.193 119.292 255.299 119.292 293.48H116.003C114.112 293.48 112.55 293.874 112.304 294.334C112.139 294.794 111.399 298.277 110.742 302.023C109.755 307.346 108.111 312.012 97.6699 335.21L22.4457 395.668L17.3485 403.883C13.4846 410.257 12.5802 412.229 13.4024 412.623C13.9778 412.952 36.1751 413.083 62.8119 412.952C94.628 412.82 111.07 413.017 111.07 413.412C111.07 413.806 110.413 415.909 109.591 418.012C108.193 421.692 107.946 422.02 105.644 422.086C104.329 422.086 100.876 421.889 97.9165 421.626C94.9569 421.363 83.5294 420.903 72.4307 420.706C61.3321 420.509 41.7656 420.049 28.8583 419.655C15.9509 419.326 5.34556 418.932 5.34556 418.866C5.26335 418.8 5.83883 416.632 6.66095 414.069C7.48308 411.572 9.12732 407.431 10.3605 404.869C11.6759 402.371 13.8956 398.823 15.2932 396.983C16.7731 395.208 24.0077 389.031 31.4068 383.248C38.8059 377.465 51.1378 367.87 58.7835 361.89C66.347 355.91 74.5682 349.207 76.8702 347.038C79.2543 344.936 82.4606 341.65 84.0226 339.81C85.5847 338.035 88.5443 334.355 90.6818 331.595C92.7371 328.901 95.6968 324.629 97.0944 322.066C98.5742 319.569 101.041 314.969 102.603 311.88C104.576 308.003 105.973 303.403 107.453 296.437C108.522 291.048 110.906 279.22 112.715 270.151C114.523 261.148 116.496 251.619 116.99 248.99C117.483 246.361 118.223 244.193 118.634 244.193ZM196.653 246.821C196.982 247.742 199.942 261.082 203.148 276.394C206.683 293.283 209.807 306.032 210.958 308.595C212.027 310.96 213.671 314.378 214.658 316.152C215.644 317.992 217.042 320.489 217.782 321.738C218.522 323.052 221.153 326.864 223.619 330.281C226.085 333.764 229.949 338.627 232.333 341.124C234.635 343.687 250.174 356.699 266.78 370.039C283.387 383.445 297.857 395.274 298.843 396.326C299.912 397.443 301.721 399.808 302.789 401.583C303.94 403.423 305.913 407.366 307.064 410.323C308.215 413.28 309.202 416.5 309.202 417.355C309.202 418.932 308.955 419.063 303.283 419.326C299.994 419.523 291.526 419.786 284.538 419.983C277.55 420.18 265.712 420.509 258.23 420.772C250.749 420.969 240.39 421.298 235.211 421.56C229.949 421.823 221.07 421.955 205.368 421.955L204.299 418.34C203.724 416.369 203.23 414.397 203.23 413.937C203.148 413.28 213.671 413.083 252.887 413.083C280.263 413.083 302.625 412.886 302.625 412.623C302.625 412.36 301.556 410.323 300.323 408.154C299.008 406.051 296.87 402.437 295.637 400.268C293.582 396.851 288.649 392.711 217.535 336.524L211.616 323.052C207.094 312.735 205.532 308.135 204.792 303.337C204.299 299.92 203.724 296.306 203.559 295.32C203.148 293.677 202.819 293.48 195.749 293.48L195.831 269.362C195.831 254.313 196.16 245.836 196.653 246.821ZM46.6983 252.079C46.8627 253.722 46.8627 256.547 46.6983 258.322C46.5339 260.162 46.4517 258.848 46.4517 255.365C46.4517 251.947 46.5339 250.502 46.6983 252.079ZM77.7745 251.093C86.8179 251.224 95.0391 251.553 97.9165 252.079V283.951L77.199 284.017C65.7715 284.017 55.0017 284.214 50.2334 284.937L50.4801 268.902C50.5623 260.096 50.9733 252.605 51.3844 252.342C51.7132 252.013 54.1796 251.553 56.7282 251.356C59.2768 251.093 68.7312 250.962 77.7745 251.093ZM242.199 251.027C253.051 251.093 262.423 251.356 262.999 251.619C263.739 252.013 263.985 256.087 263.985 284.937L259.71 284.543C257.326 284.28 247.954 284.082 238.91 284.148C229.867 284.148 221.235 284.345 217.124 284.937L217.535 251.816L220.002 251.356C221.399 251.093 231.347 250.962 242.199 251.027ZM46.6983 265.879C46.8627 267.522 46.8627 270.348 46.6983 272.122C46.5339 273.962 46.4517 272.648 46.4517 269.165C46.4517 265.748 46.5339 264.302 46.6983 265.879ZM155.876 263.382C159.493 263.382 167.057 263.579 172.73 263.973C178.402 264.302 184.486 264.959 186.295 265.353C188.103 265.748 190.405 266.536 193.2 268.179L193.283 344.738L191.474 344.476C190.405 344.278 185.144 343.621 179.718 343.03C171.99 342.241 165.824 342.11 150.943 342.373C140.585 342.57 130.39 343.03 128.335 343.424C126.28 343.818 123.978 344.278 123.238 344.476C121.84 344.738 121.758 342.635 121.758 306.82C121.758 271.531 121.84 268.771 123.156 267.522C123.978 266.799 126.691 265.813 129.157 265.288C131.624 264.828 137.214 264.171 141.489 263.973C145.764 263.711 152.259 263.448 155.876 263.382ZM46.6983 280.008C46.8627 281.848 46.8627 284.477 46.6983 285.923C46.5339 287.368 46.4517 285.923 46.4517 282.637C46.4517 279.417 46.5339 278.234 46.6983 280.008ZM78.5966 285.988C87.64 286.054 95.6968 286.383 96.5189 286.58C97.7521 286.908 97.9165 288.157 97.9165 300.38C97.9165 312.866 97.7521 314.18 96.1078 317.335C95.1213 319.241 92.6549 323.118 90.6818 326.009C88.7087 328.901 85.0092 333.764 82.4606 336.852C79.912 339.875 74.075 345.396 61.3321 355.844L50.2334 356.239V321.935C50.2334 295.189 50.4801 287.5 51.3022 287.105C51.7955 286.843 54.5085 286.448 57.2215 286.185C59.9345 285.923 69.5533 285.857 78.5966 285.988ZM245.898 286.054C253.791 286.251 261.108 286.645 263.985 287.565V355.91L258.888 355.516C254.037 355.122 253.38 354.859 248.776 351.507C246.063 349.536 241.87 346.118 239.486 343.884C237.102 341.65 233.649 338.035 231.758 335.867C229.867 333.764 225.839 328.047 217.124 314.509V301.037C217.124 290.983 217.371 287.5 218.193 287.105C218.686 286.843 221.975 286.448 225.345 286.185C228.716 285.923 238.006 285.857 245.898 286.054ZM46.6983 292.823C46.8627 294.466 46.8627 297.291 46.6983 299.066C46.5339 300.906 46.4517 299.591 46.4517 296.109C46.4517 292.691 46.5339 291.246 46.6983 292.823ZM119.292 294.794L119.374 400.926L116.414 404.869C114.77 407.037 113.29 409.534 112.715 411.769H63.7984C36.915 411.769 14.8822 411.572 14.8822 411.309C14.8822 411.046 16.8553 407.694 23.35 396.983L98.5742 336.524L101.863 329.295C103.754 325.352 106.467 319.306 108.029 315.823C109.591 312.406 111.317 307.675 111.728 305.309C112.221 303.009 112.879 299.657 113.126 297.949C113.619 294.926 113.701 294.794 119.292 294.794ZM195.749 294.794H198.626C200.435 294.794 201.668 295.189 201.915 295.78C202.162 296.371 202.326 297.751 202.326 298.934C202.326 300.117 202.902 303.272 203.559 305.966C204.135 308.726 207.094 316.678 215.48 336.524L292.348 397.837L296.295 404.474C298.432 408.154 299.994 411.309 299.83 411.572C299.665 411.834 279.77 411.966 255.6 411.966C231.511 411.966 209.643 411.9 202.326 411.769L200.6 408.68C199.695 406.972 198.215 404.803 197.311 403.883C195.749 402.306 195.667 400.86 195.749 348.55V294.794ZM46.6983 306.623C46.8627 308.266 46.8627 311.026 46.6983 312.866C46.5339 314.64 46.3694 313.326 46.3694 309.909C46.3694 306.492 46.5339 304.98 46.6983 306.623ZM46.6983 320.423C46.8627 322.066 46.8627 324.826 46.6983 326.667C46.5339 328.441 46.3694 327.126 46.3694 323.709C46.3694 320.292 46.5339 318.781 46.6983 320.423ZM46.6983 334.552C46.8627 336.327 46.8627 339.021 46.6983 340.467C46.5339 341.913 46.3694 340.467 46.3694 337.181C46.3694 333.895 46.5339 332.712 46.6983 334.552ZM46.6983 347.367C46.8627 349.01 46.8627 351.77 46.6983 353.61C46.5339 355.384 46.3694 354.07 46.3694 350.653C46.3694 347.236 46.5339 345.724 46.6983 347.367ZM159.987 345.067C172.483 345.264 182.431 345.658 185.473 346.184C188.268 346.644 191.145 347.498 191.885 348.024C193.283 348.944 193.365 350.916 193.2 397.64L190.159 397.114C188.432 396.851 183.91 396.326 180.129 395.997C176.265 395.668 164.755 395.34 154.643 395.34C144.449 395.405 133.514 395.668 130.39 395.997C127.184 396.326 123.978 396.72 123.156 396.917C121.84 397.311 121.758 395.865 121.758 373.653C121.758 359.196 122.087 349.47 122.58 348.681C122.991 347.958 124.389 347.038 125.622 346.644C126.855 346.25 130.473 345.658 133.679 345.396C136.803 345.067 148.641 344.936 159.987 345.067ZM256.175 357.159L259.875 357.619C261.848 357.882 263.656 358.079 263.739 358.144C263.821 358.21 263.985 359.459 264.15 360.97C264.232 362.547 264.15 363.73 263.985 363.73C263.739 363.665 261.848 362.219 259.875 360.379L256.175 357.159ZM58.7013 357.947L50.6445 364.585L50.3979 361.759C50.2334 359.985 50.5623 358.736 51.22 358.407C51.7955 358.145 53.6863 357.947 58.7013 357.947ZM46.6983 360.247C46.8627 361.299 46.8627 363.402 46.6983 364.848C46.5339 366.293 46.3694 365.373 46.3694 362.876C46.3694 360.313 46.5339 359.13 46.6983 360.247ZM153.574 398.1C165.331 398.034 177.005 398.363 181.937 398.823C186.541 399.283 190.816 400.006 191.556 400.531C192.625 401.189 191.803 401.254 187.117 400.86C183.91 400.531 170.017 400.334 156.287 400.334C142.476 400.334 129.239 400.531 126.855 400.794C124.224 401.123 122.58 401.057 122.662 400.663C122.745 400.334 124.142 399.743 125.786 399.414C127.431 399.02 129.815 398.626 131.212 398.494C132.528 398.363 142.64 398.166 153.574 398.1ZM153.41 402.043C165.166 401.977 178.484 402.24 183.006 402.634C190.241 403.226 191.474 403.554 193.447 405.131C194.762 406.051 195.749 407.103 195.749 407.366C195.749 407.629 192.049 407.892 179.307 407.892L169.934 422.678L171.743 437.135C172.73 445.087 173.387 451.593 173.305 451.658C173.223 451.724 171.168 451.921 168.701 451.987C166.317 452.118 164.18 451.987 164.015 451.724C163.851 451.461 163.522 445.875 163.357 439.238C163.193 432.469 162.453 424.649 161.713 421.166C160.973 417.815 159.905 414.332 159.329 413.412C158.671 412.36 157.685 411.769 156.452 411.769C155.465 411.834 154.067 412.492 153.41 413.28C152.834 414.135 151.683 417.158 150.943 420.049C150.039 423.466 149.464 429.775 148.806 451.593L143.544 451.724C140.585 451.856 138.2 451.724 138.2 451.593C138.2 451.396 138.529 449.096 139.023 446.467C139.516 443.838 140.091 440.815 140.256 439.764C140.42 438.647 141.242 434.178 143.544 421.823L141.078 417.617C139.68 415.317 137.789 412.229 134.912 407.892H126.691C121.758 407.892 118.47 407.629 118.47 407.234C118.47 406.84 119.292 405.854 120.278 405C121.511 403.949 123.567 403.291 126.28 402.963C128.499 402.7 130.719 402.437 131.212 402.306C131.624 402.174 141.653 402.043 153.41 402.043ZM116.825 409.863H133.679L140.749 422.02L139.845 428.264C139.269 431.681 138.365 436.872 137.789 439.764C137.214 442.655 136.474 446.401 136.227 448.11C135.816 450.541 135.323 451.396 133.843 451.79C132.857 452.118 130.473 454.287 128.582 456.587C126.773 458.887 124.307 462.107 121.183 466.707L105.727 467.102L106.302 456.061C106.631 449.95 107.535 441.472 108.275 437.135C108.933 432.798 110.577 425.963 111.893 422.02C113.126 418.012 114.77 413.675 115.51 412.295L116.825 409.863ZM180.951 409.863H197.393L198.626 412.163C199.284 413.412 200.435 416.632 201.093 419.26C201.833 421.889 202.984 427.081 203.641 430.892C204.299 434.704 205.121 444.232 206.026 466.313L190.816 466.707L189.748 464.736C189.254 463.684 187.035 460.662 184.815 458.033C182.102 454.681 180.211 453.038 178.484 452.578C177.087 452.25 176.018 451.724 176.018 451.461C176.018 451.198 175.196 444.758 172.483 423.335L180.951 409.863ZM156.287 413.806C156.698 413.806 157.438 414.923 157.931 416.303C158.342 417.617 159.165 420.838 159.658 423.335C160.151 425.898 160.48 434.441 160.48 442.392C160.48 450.344 160.233 460.267 159.987 464.407C159.658 468.547 159.082 475.382 158.671 479.522C158.178 483.662 157.603 487.211 157.356 487.408C157.192 487.605 157.109 477.616 157.274 465.262C157.356 452.841 157.192 442.721 156.863 442.721C156.534 442.721 156.287 444.824 156.287 447.321C156.287 449.884 156.041 452.25 155.876 452.578C155.629 452.973 155.383 461.45 155.301 471.505C155.301 482.545 154.972 488.525 154.561 486.751C154.232 485.108 153.656 479.982 153.328 475.25C152.999 470.585 152.505 463.29 152.259 459.15C151.93 455.01 151.766 446.27 151.848 439.764C151.93 433.258 152.423 425.701 152.916 423.006C153.41 420.312 154.232 417.158 154.725 415.975C155.136 414.792 155.876 413.806 156.287 413.806ZM6.41432 422.02C7.23644 422.152 19.2394 422.48 58.4546 423.335V439.764L49.1647 439.304C44.0675 438.975 32.5578 438.318 23.5145 437.727C14.4711 437.135 6.41432 436.412 5.5922 436.084C4.85229 435.755 3.70131 434.375 3.20804 433.061C2.46813 431.024 2.55034 429.709 3.6191 426.161C4.77007 422.678 5.26335 421.823 6.41432 422.02ZM306.653 421.889C310.846 421.692 310.846 421.692 311.75 424.189C312.326 425.503 312.655 428.132 312.655 429.906C312.573 431.746 311.915 433.849 311.257 434.704C310.599 435.492 309.284 436.478 308.38 436.807C307.475 437.201 295.719 438.055 282.236 438.778C268.836 439.501 257.49 440.092 257.162 440.092C256.833 440.092 256.586 436.412 256.586 423.663L258.806 423.598C260.039 423.598 262.177 423.466 263.574 423.401C264.889 423.269 274.179 423.006 284.127 422.678C294.075 422.415 302.214 422.218 302.296 422.152C302.378 422.086 304.351 421.955 306.653 421.889ZM87.1467 424.123C97.8343 424.583 106.631 425.043 106.713 425.109C106.878 425.241 106.22 429.184 103.918 442.392L99.8896 442.327C97.6699 442.327 93.8059 442.13 91.3395 441.867C88.791 441.67 81.9673 441.144 76.1303 440.75C70.211 440.29 65.3605 439.961 65.196 439.895C65.1138 439.83 65.0316 436.675 64.9494 432.864C64.8672 429.052 64.785 425.503 64.7028 424.846C64.6206 424.255 65.2783 423.663 66.1826 423.532C67.0047 423.466 76.4591 423.729 87.1467 424.123ZM61.7431 423.663C62.2364 423.663 62.5653 427.081 62.5653 432.535C62.5653 438.055 62.2364 441.407 61.7431 441.407C61.1676 441.407 60.921 438.055 60.921 432.535C60.921 427.081 61.1676 423.663 61.7431 423.663ZM250.256 423.992L250.338 431.812C250.338 436.084 250.174 439.83 250.009 440.092C249.762 440.355 242.199 440.947 233.156 441.407C224.112 441.801 214.822 442.261 208.492 442.524L207.177 433.915C206.519 429.184 205.943 425.241 205.943 425.175C205.943 425.109 214.493 424.846 224.934 424.649C235.293 424.386 244.008 424.058 244.172 423.861C244.419 423.729 245.816 423.729 250.256 423.992ZM51.8777 444.035H74.075C86.2424 444.035 96.3545 444.298 96.5189 444.561C96.6833 444.824 96.6833 446.27 96.2723 450.607H51.8777V444.035ZM217.946 444.035H262.341V449.95H217.946V444.035ZM73.7461 453.038C85.0092 453.17 94.628 453.236 95.2035 453.236C95.8612 453.236 96.2723 454.353 96.2723 459.807H52.2887V456.719C52.2887 455.01 52.5354 453.433 52.782 453.236C53.1109 453.038 62.5653 452.973 73.7461 453.038ZM217.946 452.578H261.93L261.683 459.479L217.946 459.807V452.578ZM149.381 453.958C149.464 454.156 149.71 458.099 150.368 471.308L147.326 471.768C145.682 471.965 143.709 472.359 142.887 472.556C141.736 472.885 141.489 472.622 141.489 471.176C141.489 470.19 141.9 468.153 142.393 466.707C142.887 465.262 143.791 463.027 144.449 461.779C145.189 460.53 146.504 458.23 147.408 456.587C148.395 455.01 149.217 453.827 149.381 453.958ZM177.662 453.893L180.54 456.719C182.102 458.23 184.897 461.713 186.623 464.407C188.35 467.102 190.405 471.242 191.063 473.608C191.803 475.973 192.378 478.208 192.461 478.536C192.461 478.931 189.008 479.128 183.171 478.996C175.936 478.865 172.647 479.062 167.797 480.113C164.344 480.836 161.384 481.296 161.22 481.165C160.973 480.968 161.055 480.442 161.384 479.851C161.713 479.325 162.864 478.865 163.851 478.799C164.919 478.799 166.975 478.405 168.619 477.945C170.181 477.485 171.908 476.433 172.401 475.513C173.141 474.33 173.058 473.016 172.236 469.862C171.579 467.562 169.77 463.159 168.208 460.004C166.564 456.85 165.248 454.156 165.331 454.09C165.331 453.958 168.044 453.893 177.662 453.893ZM146.011 454.616L142.887 461.516C140.502 466.773 139.845 469.336 139.845 476.893L143.298 477.879C145.271 478.405 147.737 478.931 148.888 478.996C150.286 479.128 150.943 479.653 151.108 480.705C151.354 482.085 151.19 482.151 148.23 481.494C146.586 481.099 142.393 480.376 139.023 479.785C134.748 479.128 131.048 478.931 127.102 479.259C123.896 479.456 120.772 479.851 120.196 480.113C119.209 480.442 119.127 479.982 119.621 477.551C119.949 475.908 121.183 472.688 122.251 470.322C123.402 467.956 125.786 464.013 127.595 461.45C129.486 458.953 131.541 456.324 132.281 455.733C133.186 454.813 134.748 454.55 146.011 454.616ZM163.029 454.221L164.591 456.521C165.413 457.77 167.221 461.582 168.537 464.933C169.934 468.285 171.085 471.57 171.085 472.293C171.085 473.345 170.757 473.476 169.606 473.082C168.866 472.753 166.81 472.293 162.042 471.636V467.562C162.042 465.262 162.289 461.384 162.535 458.821L163.029 454.221ZM261.848 462.107V467.562C261.848 472.49 261.765 472.95 260.203 473.016C259.299 473.082 249.516 473.082 238.417 473.082C227.401 473.016 218.275 472.95 218.193 472.819C218.111 472.753 217.946 470.388 217.864 467.693C217.864 464.999 217.782 462.567 217.782 462.304C217.782 462.042 227.73 461.91 261.848 462.107ZM52.2065 462.436H96.19V473.608H52.2065V462.436ZM148.641 473.016C150.203 472.95 150.45 473.279 150.45 475.25C150.45 477.222 150.203 477.551 148.641 477.551C147.573 477.551 145.6 477.288 144.12 476.893C142.64 476.565 141.325 475.842 141.242 475.25C141.16 474.659 142.147 474.068 143.955 473.673C145.517 473.345 147.573 473.082 148.641 473.016ZM163.522 472.95C164.262 472.95 166.07 473.213 167.55 473.608C169.03 474.002 170.181 474.725 170.181 475.25C170.181 475.776 169.03 476.565 167.55 476.893C166.07 477.288 164.015 477.551 163.029 477.551C161.713 477.551 161.138 477.156 161.138 476.236C161.138 475.513 161.384 474.462 161.631 473.936C161.878 473.41 162.782 472.95 163.522 472.95ZM239.239 475.579V478.208C239.239 479.653 238.91 480.836 238.417 480.836C238.006 480.836 237.595 481.296 237.595 481.822C237.595 482.348 238.006 482.808 238.417 482.808C238.91 482.808 239.239 483.991 239.239 485.436C239.239 486.882 238.91 488.065 238.417 488.065C238.006 488.065 237.595 488.525 237.595 489.051C237.595 489.577 238.006 490.037 238.417 490.037C238.91 490.037 239.239 491.088 239.239 494.637H206.354L206.848 492.205C207.177 490.825 207.752 488.657 208.163 487.408C208.656 486.159 209.972 483.794 211.123 482.151C212.274 480.508 214.082 478.405 215.316 477.419C217.371 475.579 217.453 475.579 239.239 475.579ZM240.061 475.579H264.314L266.205 477.748C267.191 478.931 268.918 481.625 270.069 483.794C271.138 485.962 272.371 489.314 273.357 494.702L240.061 494.637V488.394C240.061 484.451 240.39 482.282 240.884 482.479C241.377 482.676 241.706 482.348 241.706 481.822C241.706 481.296 241.377 480.968 240.884 481.165C240.39 481.362 240.061 480.311 240.061 478.536V475.579ZM50.2334 476.236H72.924L72.7596 495.294H40.6968L41.3545 491.548C41.7656 489.445 42.9988 486.094 44.0675 484.122C45.2185 482.151 47.1094 479.588 48.1781 478.405L50.2334 476.236ZM98.7386 476.236L101.205 478.668C102.52 480.048 104.165 482.479 104.905 484.122C105.562 485.699 106.384 488.788 107.371 494.637L104.082 494.702C102.274 494.768 94.9569 494.9 87.8044 495.031C80.6519 495.162 74.8149 495.031 74.8149 494.768C74.8149 494.505 74.6505 493.191 74.4038 491.811C74.075 489.839 74.2394 489.445 75.3082 489.708C75.9659 489.905 76.5413 489.642 76.5413 489.051C76.5413 488.459 76.1303 487.999 75.637 487.868C75.1437 487.802 74.5682 486.751 74.4038 485.568C74.1572 484.122 74.4038 483.334 75.3082 483.136C75.9659 482.939 76.5413 482.348 76.5413 481.822C76.4865 481.165 75.9932 480.968 75.0615 481.231C73.9105 481.559 73.7461 481.362 74.2394 480.048C74.5682 479.193 74.8149 478.011 74.8149 477.353C74.8971 476.302 75.9658 476.236 98.7386 476.236ZM180.54 479.588C180.951 479.522 183.746 479.851 186.706 480.245C189.748 480.639 191.638 481.165 191.227 481.494C190.734 481.756 188.514 482.282 186.295 482.611C183.993 482.939 178.978 483.268 175.196 483.399C171.332 483.465 167.221 483.268 166.153 482.939C164.097 482.348 164.18 482.282 167.386 481.494C169.194 480.968 172.647 480.376 175.196 480.113C177.662 479.916 180.047 479.653 180.54 479.588ZM132.857 480.508C136.474 480.705 141.242 481.296 143.544 481.888C147.162 482.808 147.408 483.005 146.011 483.596C144.942 484.056 140.585 484.188 134.912 483.925C129.486 483.728 123.978 483.202 122.169 482.611C119.045 481.691 118.963 481.625 120.936 481.231C122.005 481.033 123.731 480.705 124.635 480.573C125.54 480.376 129.239 480.376 132.857 480.508ZM222.221 497.265L257.819 497.2L260.45 502.128C261.93 504.888 263.163 507.386 263.163 507.78C263.163 508.174 255.928 508.437 243.185 508.437C232.251 508.437 221.893 508.634 220.166 508.897C217.864 509.291 217.042 509.16 217.042 508.569C217.042 508.109 217.617 506.794 218.275 505.611C218.851 504.428 220.002 502.063 220.824 500.354L222.221 497.265ZM56.0705 497.923H92.5727L94.9569 503.048C96.3545 505.808 97.5877 508.371 97.6699 508.634C97.7521 508.897 87.3111 509.094 51.0555 509.094L52.6998 505.348C53.6863 503.246 54.8373 500.748 55.2484 499.763L56.0705 497.923Z" fill="#FEFEFE"/>
<path d="M52.5357 156.593C52.4535 153.504 52.7001 152.715 54.0155 152.19C54.8376 151.795 56.0708 151.467 56.6463 151.467C57.1396 151.467 58.3728 151.73 59.2771 152.124C60.6747 152.65 60.9213 153.438 60.9213 160.338H52.7001L52.5357 156.593Z" fill="#464646"/>
<path d="M252.311 156.593C252.229 153.833 252.476 152.781 253.38 152.584C253.956 152.387 255.353 152.19 256.422 152.19C257.409 152.124 258.806 152.584 259.464 153.11C260.204 153.701 260.697 155.344 260.697 160.338H252.476L252.311 156.593Z" fill="#464646"/>
<path d="M146.669 198.651C146.833 195.365 146.915 195.299 150.122 194.445C151.93 194.051 153.821 193.657 154.397 193.591C155.137 193.525 155.301 194.577 154.972 197.337C154.725 199.374 154.397 201.28 154.15 201.608C153.986 201.871 152.177 202.068 146.422 202.068L146.669 198.651Z" fill="#464646"/>
<path d="M159.823 199.439C159.74 198.913 159.494 197.336 159.247 196.022C158.836 193.919 159.001 193.525 160.151 193.525C160.974 193.525 163.193 194.051 165.166 194.708C168.619 195.825 168.702 195.891 168.619 202.068H164.92C162.865 202.068 160.974 201.74 160.645 201.28C160.316 200.82 159.987 199.965 159.823 199.44L159.823 199.439Z" fill="#464646"/>
<path d="M132.857 201.082C134.008 200.162 136.885 198.717 139.27 197.797C141.572 196.877 143.791 196.154 144.202 196.154C144.531 196.154 145.024 196.614 145.271 197.139C145.6 197.665 145.6 199.111 145.353 200.294C145.024 201.805 144.12 202.66 142.394 203.382C140.585 204.105 139.763 204.96 139.434 206.537C139.023 208.574 138.941 208.64 130.802 208.64V205.683C130.802 203.382 131.295 202.331 132.857 201.082Z" fill="#464646"/>
<path d="M172.319 203.711C169.606 202.528 169.359 202.2 169.524 199.505L169.688 196.679L172.648 197.139C174.292 197.402 176.758 198.059 178.074 198.585C179.389 199.177 181.198 200.097 181.938 200.688C182.76 201.28 183.171 201.937 183.007 202.265C182.76 202.528 182.924 202.857 183.418 203.054C183.911 203.251 184.24 204.697 184.24 209.297H180.951C179.143 209.297 177.087 209.165 176.43 208.968C175.69 208.771 175.196 207.851 175.196 206.865C175.196 205.42 174.539 204.697 172.319 203.711Z" fill="#464646"/>
<path d="M146.258 210.348C146.175 209.165 146.422 207.983 146.833 207.72C147.162 207.457 149.135 207.26 154.643 207.26V212.517H150.533C146.422 212.517 146.422 212.517 146.258 210.348Z" fill="#464646"/>
<path d="M160.398 212.517V209.888V207.26H168.619V212.517H160.398Z" fill="#464646"/>
<path d="M54.1807 156.199C54.0985 154.819 54.4274 153.439 54.7562 153.176C55.1673 152.913 56.2361 152.781 57.2226 152.913C58.538 153.044 58.8668 153.636 59.1135 155.936C59.2779 158.63 59.1957 158.696 56.8115 158.696C54.5096 158.696 54.3452 158.499 54.1807 156.199Z" fill="#FEFEFE"/>
<path d="M255.354 159.024C254.368 159.287 254.121 158.762 254.121 156.396C254.121 153.57 254.203 153.439 256.587 153.439C258.889 153.439 259.054 153.57 259.054 156.067C259.054 157.973 258.725 158.696 257.82 158.696C257.163 158.696 256.012 158.827 255.354 159.024Z" fill="#FEFEFE"/>
<path d="M147.081 198.783C146.998 197.074 147.409 196.614 149.794 195.825C151.356 195.3 152.835 194.905 153.246 194.84C153.575 194.84 153.822 195.497 153.822 196.351C153.822 197.14 153.658 198.454 153.411 199.308C153.082 200.491 152.424 200.754 150.122 200.754C147.492 200.754 147.245 200.557 147.081 198.783Z" fill="#FEFEFE"/>
<path d="M161.714 200.294C161.55 199.966 161.221 198.651 160.892 197.337C160.563 195.957 160.481 194.84 160.728 194.84C161.057 194.84 162.536 195.3 164.098 195.825C166.483 196.614 166.976 197.14 166.976 198.783C166.976 200.557 166.729 200.754 164.51 200.754C163.194 200.754 161.879 200.557 161.714 200.294Z" fill="#FEFEFE"/>
<path d="M133.68 201.674L137.791 199.9C140.093 198.98 142.312 198.191 142.888 198.126C143.463 198.126 143.792 198.914 143.71 199.9C143.628 201.148 142.888 201.871 141.49 202.331C140.175 202.726 138.366 202.726 133.68 201.674Z" fill="#FEFEFE"/>
<path d="M173.142 202.594C171.662 202.003 171.087 201.214 171.087 199.966C171.087 198.914 171.415 198.126 171.909 198.126C172.402 198.126 174.375 198.717 176.43 199.44C178.486 200.163 180.294 201.017 180.541 201.411C180.788 201.806 179.637 202.331 178.075 202.726C176.019 203.186 174.622 203.186 173.142 202.594Z" fill="#FEFEFE"/>
<path d="M134.913 207.983C132.858 207.983 132.447 207.72 132.447 206.34C132.447 205.223 132.94 204.697 133.927 204.697C134.667 204.697 136.064 205.026 136.886 205.486C137.708 205.946 138.202 206.734 137.955 207.194C137.626 207.589 136.229 207.983 134.913 207.983Z" fill="#FEFEFE"/>
<path d="M177.088 206.866C176.924 206.406 177.664 205.749 178.732 205.42C179.719 205.026 181.034 204.763 181.61 204.763C182.103 204.697 182.596 205.42 182.596 206.34C182.596 207.786 182.267 207.983 179.965 207.852C178.568 207.72 177.252 207.26 177.088 206.866Z" fill="#FEFEFE"/>
<path d="M150.945 211.926C148.396 211.926 148.067 211.729 148.067 210.283C148.067 208.837 148.396 208.64 150.945 208.64C153.493 208.64 153.822 208.837 153.822 210.283C153.822 211.729 153.493 211.926 150.945 211.926Z" fill="#FEFEFE"/>
<path d="M164.756 211.794C162.372 211.926 162.043 211.729 162.043 210.283C162.043 208.837 162.372 208.64 164.921 208.64C167.387 208.64 167.798 208.837 167.634 210.152C167.469 211.269 166.811 211.663 164.756 211.794Z" fill="#FEFEFE"/>
</svg>
