<svg width="747" height="127" viewBox="0 0 747 127" fill="none" xmlns="http://www.w3.org/2000/svg">
<path d="M570.758 8.04132C574.542 6.14925 581.164 3.4688 585.579 2.36509C589.836 1.10371 598.823 0 605.288 0C611.91 0 621.371 1.10372 626.574 2.52277C631.777 3.94183 638.872 7.09527 642.341 9.30268C645.81 11.6678 651.171 16.398 654.167 19.7091C657.32 23.1779 661.577 29.3272 663.627 33.4266C666.938 39.8912 668.042 40.9949 670.722 40.0489C672.457 39.4182 676.398 38.4722 679.394 37.8415C682.39 37.2108 686.963 37.2108 689.643 37.8415C692.166 38.4722 696.738 41.3102 699.419 43.833C702.257 46.5135 705.253 51.4013 706.199 54.7125C706.987 57.8659 707.775 62.1231 707.775 64.1728C707.775 66.0649 709.037 68.1146 710.456 68.5877C712.033 69.0607 714.398 70.1644 715.659 70.9528C716.92 71.7411 719.916 73.1602 722.281 73.9485C724.804 74.8946 726.696 76.629 726.696 77.8903C726.696 79.1517 727.958 80.7285 729.377 81.3592C730.953 81.9899 733.476 83.5666 735.053 84.9856C736.472 86.247 737.733 88.4544 737.733 89.7158C737.733 91.2925 736.472 90.8195 733.476 87.8238C730.953 85.6163 726.223 82.3052 722.754 80.5708C719.285 78.6787 713.294 76.7866 709.352 76.3136C705.095 75.5253 698.63 75.9983 693.585 77.102C688.855 78.2057 682.232 80.8861 678.921 82.9359C675.768 84.828 671.038 88.9275 668.357 91.7656C665.834 94.446 663.312 98.0725 662.839 99.6492C662.208 101.857 661.42 102.014 657.635 100.753C655.27 99.8069 651.644 99.3338 649.436 99.8068C647.229 100.28 644.076 102.172 639.188 107.06L636.35 100.438C634.773 96.6534 631.146 90.8195 628.308 87.3507C625.47 83.8819 620.109 79.3094 616.168 77.2597C610.491 74.1062 607.022 73.3178 597.404 73.4755C587.156 73.4755 584.318 74.1062 576.907 78.2057C572.177 80.8861 565.239 86.247 561.613 89.8735C557.986 93.6576 553.887 98.2301 552.625 99.9645C551.364 101.699 548.841 107.375 547.107 112.578C545.215 117.939 543.796 125.035 544.426 136.229L552.31 132.445C559.09 129.292 561.928 128.819 570.6 129.607C576.592 130.08 583.214 131.814 586.683 133.706C589.994 135.599 592.674 137.333 592.674 137.806C592.674 138.279 588.575 138.121 583.529 137.648C578.484 137.018 571.231 137.333 566.658 138.437C562.086 139.54 555.464 142.694 543.007 152.47L537.489 146.32C534.493 143.009 529.447 139.54 526.452 138.752C523.456 137.806 518.253 137.018 509.108 137.018L511.315 131.972C512.892 128.188 513.207 124.877 512.104 119.674C511.315 115.416 509.108 110.844 506.427 108.164C502.643 104.379 502.012 102.172 501.539 93.1846C501.224 86.72 499.647 79.7824 497.598 75.0523C494.759 68.903 492.71 66.8532 487.349 64.3305C481.988 61.9654 479.623 61.65 475.208 62.9114C472.055 63.8575 468.113 66.6956 465.905 69.6914C463.856 72.3718 461.648 76.4713 461.017 78.6787C460.387 80.8861 459.283 82.9359 458.81 83.4089C458.179 83.8819 457.076 86.5624 456.13 89.4005C454.868 93.973 453.607 95.0767 446.669 97.2841C442.097 98.7032 436.578 101.699 434.213 103.906C431.848 106.114 428.695 110.686 424.437 120.462L422.545 115.732C421.599 113.209 421.126 108.479 421.284 105.483C421.599 102.487 422.861 98.2301 423.964 96.0227C425.226 93.8153 427.591 90.9772 429.325 89.4005C431.217 87.9814 432.321 86.4047 431.848 85.9317C431.375 85.4586 428.537 84.6703 425.541 84.0396C421.284 83.4089 418.761 84.0396 414.504 86.8777C411.508 88.9275 407.566 93.4999 405.99 96.8111C404.413 100.28 402.994 106.114 402.836 109.74C402.679 113.524 402.363 116.52 401.89 116.52C401.417 116.52 400.313 115.732 399.525 114.786C398.579 113.84 392.903 113.367 384.546 113.682C373.982 114.155 369.725 115.101 364.206 118.097C360.265 120.304 356.953 122.985 356.638 124.088C356.323 125.035 357.742 126.296 359.634 126.769C361.684 127.084 367.36 129.607 372.248 132.287C377.293 134.81 381.393 137.648 381.393 138.594C381.393 139.54 377.136 140.171 371.932 140.171C366.256 140.171 359.161 141.432 354.115 143.325C349.701 145.059 345.759 146.478 345.443 146.478C345.286 146.478 344.813 144.901 344.497 143.009C344.024 140.644 341.502 138.279 336.929 136.229C333.145 134.495 327.311 133.076 323.842 133.233C319.112 133.233 316.589 132.13 313.593 129.134C311.386 126.927 307.76 124.246 305.237 123.142C302.872 122.039 299.088 121.25 296.565 121.25C294.2 121.25 289.943 122.669 287.104 124.404C284.109 126.296 280.798 130.395 278.905 134.653C277.013 138.91 276.225 143.167 276.698 145.374C277.644 148.212 277.486 148.528 275.594 146.951C274.333 145.847 268.341 143.798 262.35 142.536C256.201 141.275 249.105 140.171 246.583 140.171C243.902 140.171 240.749 140.959 239.487 141.748C237.438 143.009 237.595 143.325 239.803 143.325C241.379 143.325 244.217 144.271 246.11 145.374C248.002 146.32 251.155 149.001 253.047 151.208C254.939 153.416 256.516 155.308 256.358 155.465C256.201 155.623 252.101 154.677 247.371 153.416C242.641 152.154 233.023 151.208 226.085 151.366C215.048 151.524 212.052 150.893 202.434 146.478C194.235 142.694 188.401 141.117 179.572 140.644C172.634 140.171 163.804 140.644 158.286 141.748C152.137 143.167 146.46 145.69 142.046 149.158C138.419 151.997 134.95 154.046 134.162 153.573C133.531 153.1 133.847 149.789 136.842 139.383L124.702 140.329C115.872 140.959 110.196 142.379 95.2167 149.947L86.5447 147.266C80.0801 145.217 75.0346 144.744 66.8356 145.374C60.6864 145.847 52.172 147.739 47.9149 149.474C42.3963 151.681 35.6164 152.627 25.0523 152.943C16.8533 153.1 4.08184 152.312 -3.32878 151.366C-10.7394 150.42 -22.0918 148.685 -28.5564 147.739C-35.021 146.793 -41.3279 145.532 -42.2739 145.059C-43.693 144.428 -43.22 142.536 -40.3819 138.279C-38.1745 134.968 -35.1787 132.13 -33.7596 132.13C-32.1829 131.972 -20.3574 131.814 -7.2706 131.657C16.1469 131.5 16.5357 131.342 31.2164 125.408L31.3592 125.35C39.5582 122.039 49.4916 118.412 53.4334 117.151C57.3752 116.047 65.1012 114.943 70.7774 114.943C78.188 114.943 83.2336 116.047 88.9098 118.57C93.1669 120.62 97.8971 123.615 99.1585 125.35C100.42 127.242 102.627 128.976 103.889 129.449C105.308 129.765 107.988 128.03 110.196 125.35C112.403 122.827 116.503 119.831 119.183 118.57C122.021 117.466 127.697 116.52 131.797 116.52C136.054 116.52 142.361 117.939 152.767 122.827L159.39 116.836C163.174 113.524 169.638 109.11 174.053 107.06C180.202 104.064 184.459 103.118 192.974 103.118C201.488 103.118 205.588 103.906 211.106 106.744C215.048 108.794 220.409 112.736 223.247 115.416C225.927 118.255 228.45 119.831 228.766 118.885C228.923 117.939 232.077 115.416 235.545 113.051C239.014 110.686 245.637 107.217 250.051 105.483C254.624 103.749 262.508 101.857 267.395 101.384C273.387 100.911 279.221 101.384 284.424 102.96C288.681 104.222 293.411 104.852 294.673 104.222C296.565 103.433 296.723 103.749 295.461 105.483C294.357 107.217 294.357 107.533 295.934 106.744C296.88 105.956 297.826 103.591 297.826 101.226C297.826 98.7032 298.615 95.5497 299.718 94.1307C300.822 92.5539 304.606 90.3465 308.075 89.0851C311.544 87.8237 315.013 87.1931 315.801 87.8238C316.589 88.4544 316.589 86.5623 315.801 83.4089C315.013 80.4131 314.54 75.3676 314.54 72.3718C314.54 69.376 315.013 64.1728 315.643 61.0194C316.274 57.5506 319.112 52.3474 322.265 48.7209C325.261 45.2521 328.099 42.887 328.572 43.6754C329.045 44.3061 329.676 43.5177 330.149 42.0987C330.622 40.5219 331.568 39.5759 332.514 40.0489C333.303 40.5219 334.091 40.2065 334.091 39.2605C334.091 38.3145 335.195 37.9991 336.456 38.4721C337.717 38.9452 338.821 38.7875 338.821 38.1568C338.821 37.3685 340.082 36.7378 341.502 36.5801C343.078 36.4224 348.124 36.1071 352.696 35.7917C357.427 35.4764 361.526 35.7917 361.841 36.5801C362.157 37.2108 363.733 37.6838 365.152 37.6838C366.729 37.6838 372.248 39.5759 377.451 41.7833C382.654 43.9907 387.857 46.1981 389.119 46.8288C390.222 47.4595 391.011 47.3018 390.853 46.3558C390.538 45.4097 391.168 42.5716 392.272 40.0489C393.376 37.5261 396.056 33.4266 398.421 30.9039C400.787 28.5388 405.201 25.8583 408.197 24.9123C411.193 23.9662 415.765 23.6509 418.446 24.1239C420.969 24.7546 425.856 27.1197 429.01 29.4848C432.321 31.8499 434.371 34.3727 433.74 35.0034C433.109 35.7917 433.898 35.9494 435.317 35.4764C436.894 35.0034 438.47 33.269 438.943 31.8499C439.259 30.2732 441.781 27.1197 444.462 24.7546C446.985 22.2319 451.872 18.7631 455.026 16.871C459.598 14.3482 463.856 13.5599 472.843 13.4022C482.619 13.2445 486.245 14.0329 493.34 17.5017C498.544 19.8668 504.062 24.2816 507.058 28.0657C509.896 31.6922 512.261 35.0034 512.261 35.7917C512.261 36.4224 513.207 38.3145 514.469 40.0489C516.676 43.2023 516.834 43.2024 520.46 39.7336C522.51 37.8415 526.609 35.7917 529.605 35.4764C533.074 34.8457 536.385 35.4764 538.277 36.8954C540.012 38.1568 542.061 39.2605 543.007 39.2605C543.796 39.2605 546.318 35.7917 548.526 31.2192C550.733 26.8044 554.99 20.6551 558.144 17.5017C561.297 14.1906 566.974 10.0911 570.758 8.04132Z" fill="white"/>
<path d="M487.835 64.488C484.366 62.9112 480.74 61.4922 479.951 61.4922C479.005 61.4922 476.01 62.5959 473.329 63.6996C470.649 64.8033 467.022 67.7991 465.288 70.3219C463.553 72.8446 461.661 76.6288 461.031 78.8362C460.242 80.8859 459.296 83.0934 458.666 83.5664C458.035 83.8817 456.931 86.7198 456.143 89.5579C454.881 93.9728 453.462 95.2341 446.525 97.4416C442.11 98.8606 436.591 101.856 434.069 104.064C431.703 106.114 428.55 110.844 427.131 114.313L424.293 120.619C421.612 113.209 420.982 108.636 421.297 105.641C421.612 102.487 422.716 98.2299 423.978 96.1802C425.081 93.9728 427.604 90.977 429.338 89.5579C431.073 88.1389 432.177 86.5622 431.861 86.0891C431.388 85.6161 428.235 84.6701 424.924 84.1971C419.878 83.4087 417.828 84.0394 413.887 87.0352C411.206 89.0849 407.58 93.4998 406.003 96.9686C404.268 100.437 402.849 106.271 402.849 109.898C402.692 113.682 402.219 116.678 401.903 116.678C401.43 116.678 400.327 115.889 399.538 114.943C398.435 113.84 392.916 113.524 384.559 113.84C373.995 114.313 369.58 115.259 364.062 118.254C360.278 120.462 356.967 122.985 356.651 124.088C356.336 125.192 357.755 126.453 359.647 126.769C361.539 127.242 367.215 129.764 372.261 132.287C377.306 134.968 381.406 137.806 381.406 138.752C381.406 139.54 377.149 140.329 371.946 140.329C366.269 140.329 359.016 141.59 354.129 143.482C349.556 145.216 345.614 146.635 345.457 146.635C345.299 146.635 344.826 145.059 344.353 143.009C343.88 140.644 341.357 138.437 336.942 136.387C333.158 134.652 327.324 133.233 323.855 133.233C319.125 133.233 316.445 132.287 313.607 129.291C311.399 127.084 307.615 124.404 305.25 123.3C302.885 122.196 298.943 121.408 296.578 121.408C294.213 121.408 289.956 122.827 287.118 124.561C284.122 126.453 280.811 130.553 278.919 134.81C276.869 139.067 276.08 143.324 276.711 145.374C277.5 148.37 277.342 148.685 275.607 146.951C274.346 146.005 268.355 143.955 262.363 142.694C256.214 141.432 249.118 140.329 246.596 140.329C243.915 140.329 240.762 140.959 239.5 141.905C237.451 143.167 237.451 143.324 239.816 143.482C241.392 143.482 244.073 144.27 245.965 145.374C247.857 146.478 251.011 149.158 253.06 151.366C254.952 153.415 256.371 155.465 256.214 155.623C256.056 155.781 252.114 154.834 247.384 153.573C242.496 152.312 233.036 151.366 226.098 151.523C214.903 151.523 212.065 151.05 202.447 146.478C194.248 142.851 188.257 141.275 179.585 140.644C172.647 140.171 163.817 140.802 158.299 141.905C152.15 143.324 146.473 145.847 142.059 149.158C138.432 152.154 134.806 154.046 134.175 153.731C133.544 153.258 133.86 149.789 134.963 146.162L136.855 139.54C115.885 141.117 110.209 142.536 103.902 145.689L95.2298 150.104C80.0932 145.216 75.0477 144.743 66.8487 145.532C60.6995 146.005 52.1851 147.897 47.928 149.474C42.5671 151.681 35.4718 152.785 25.8538 152.942C17.9701 153.258 4.56797 152.469 -4.10403 151.366C-12.776 150.262 -25.2322 148.528 -31.6968 147.266C-38.319 146.162 -43.8376 145.532 -43.9952 145.847C-44.1529 146.005 -40.3688 147.582 -35.3232 149.001C-30.2777 150.42 -18.7676 153.258 -9.62258 155.307C-0.635235 157.357 14.9744 160.195 25.0654 161.614C37.9946 163.506 49.5047 164.137 65.272 163.506C86.4001 162.876 87.6615 163.033 95.2298 166.818C99.487 168.867 106.582 171.705 110.997 172.809C115.254 173.913 122.507 175.017 127.08 175.017C131.652 175.017 138.747 173.913 142.847 172.494C149.942 170.129 150.415 170.129 151.834 172.809C152.623 174.386 155.934 178.485 158.93 181.796C162.083 185.108 166.971 188.576 170.124 189.523C173.12 190.469 178.796 191.099 182.738 191.099C187.468 190.994 193.25 189.155 200.082 185.581L210.331 180.22C237.766 195.829 239.343 196.302 249.749 196.302C258.263 196.145 262.521 195.356 268.512 192.361C272.769 190.153 278.761 185.896 281.599 182.9C284.595 179.747 288.379 174.701 290.113 171.39C293.109 165.556 293.109 165.556 298.155 167.764C300.993 168.867 306.196 170.444 309.665 170.917C313.134 171.548 319.914 171.232 324.959 170.286C330.005 169.498 337.1 167.291 340.726 165.556C344.353 163.822 347.664 162.403 347.822 162.403C347.979 162.403 348.61 164.61 349.241 167.448C349.714 170.286 351.763 175.49 353.655 178.958C355.705 182.427 360.12 187.157 363.431 189.365C366.742 191.73 373.365 194.726 378.252 196.145C382.983 197.564 392.128 198.667 398.75 198.667C405.214 198.51 414.833 197.406 420.036 196.145C425.239 194.726 433.28 191.415 438.168 188.892C442.898 186.211 448.417 182.743 450.309 181.008C453.778 178.17 453.935 178.17 461.346 182.112C467.968 185.738 470.333 186.211 480.74 185.581C487.204 185.265 493.669 184.477 495.246 183.846C497.453 183.058 498.714 184.319 500.922 189.523C502.499 193.307 506.283 198.983 509.121 202.452C512.117 205.763 518.266 210.966 522.838 213.804C527.411 216.8 536.398 220.899 543.021 223.107C551.535 225.945 558.157 227.049 566.987 227.049C573.767 227.049 583.069 225.945 587.957 224.526C592.687 223.107 600.886 219.638 606.09 216.8C611.293 213.962 619.176 207.812 623.591 203.082C628.164 198.352 632.579 191.888 633.84 188.103C635.732 182.112 636.363 181.639 639.201 183.216C640.935 184.004 647.242 184.635 653.391 184.319C662.063 183.846 666.005 182.743 670.735 179.589C674.677 177.066 678.304 172.809 680.511 168.237C682.403 164.137 684.138 158.619 684.138 156.096C684.138 153.415 684.295 151.366 684.453 151.366C684.611 151.208 687.291 152.469 690.445 153.888C694.386 155.781 698.486 156.254 705.423 155.78C710.627 155.307 718.353 153.415 722.767 151.523C727.025 149.631 732.543 146.162 734.908 143.797C737.431 141.432 740.9 135.598 742.634 130.868C744.842 125.192 745.945 118.097 746.103 110.371C746.103 101.383 745.315 96.8109 742.95 91.45C741.057 87.5082 737.273 81.9896 734.278 79.3092C731.439 76.6288 726.236 72.8446 722.767 71.1102C719.299 69.3758 714.253 67.3261 711.73 66.6954C708.104 65.907 707.316 66.0647 708.104 67.4837C708.735 68.4298 710.469 69.3758 712.046 69.2181C713.622 69.2181 715.83 70.3219 717.249 71.5832C718.51 73.0023 721.191 74.4214 723.083 74.8944C724.975 75.3674 726.709 76.6288 726.709 78.0478C726.709 79.3092 727.813 80.886 729.39 81.5166C730.966 82.1473 733.489 83.724 734.908 84.9854C736.485 86.4045 737.746 88.4542 737.746 89.8733C737.746 91.45 736.485 90.977 733.332 87.9812C730.966 85.6161 726.236 82.305 722.767 80.5706C719.299 78.8362 713.149 76.9441 709.365 76.3134C705.108 75.6827 698.643 76.1558 693.598 77.2595C688.71 78.3632 682.246 80.8859 678.934 82.9357C675.623 84.9854 670.893 88.9273 668.37 91.7654C665.69 94.6035 663.325 98.23 662.852 99.649C662.063 102.014 661.275 102.172 657.649 100.753C655.284 99.9643 651.499 99.4913 649.45 99.9643C647.242 100.437 644.089 102.329 642.354 104.064L639.201 107.217C634.628 96.8109 631.16 90.977 628.321 87.5082C625.483 84.0394 619.965 79.4669 616.181 77.2595C610.504 74.2637 607.036 73.4753 597.418 73.4753C587.169 73.633 584.331 74.2637 576.92 78.3632C572.032 81.0436 565.252 86.2468 561.468 90.031C557.842 93.8151 553.9 98.3876 552.639 100.122C551.377 101.856 548.854 107.533 546.962 112.736C545.07 118.097 543.809 125.192 543.967 129.291L544.282 136.387C559.103 129.449 561.941 128.976 570.613 129.607C576.605 130.238 583.227 131.814 586.696 133.864C590.007 135.598 592.687 137.49 592.687 137.963C592.687 138.279 588.588 138.279 583.542 137.648C578.339 137.175 571.086 137.49 566.671 138.594C561.941 139.698 555.477 142.851 550.904 146.478L543.021 152.469C534.349 143.167 529.461 139.698 526.465 138.752C523.311 137.963 518.266 137.175 514.955 137.175H509.121C512.905 128.188 513.063 125.034 512.117 119.831C511.328 115.416 508.963 111.001 506.44 108.321C502.656 104.379 501.868 102.329 501.395 93.3421C501.08 86.7199 499.66 79.7822 497.453 75.0521C494.93 69.3758 492.565 66.8531 487.835 64.488Z" fill="#FFC3C2"/>
<path d="M2.20288 131.972C6.46004 131.657 3.30659 131.341 -4.8924 131.341C-13.2491 131.341 -16.7179 131.657 -12.776 131.972C-8.99189 132.287 -2.21196 132.287 2.20288 131.972Z" fill="#FFC3C2"/>
</svg>
