<svg width="791" height="127" viewBox="0 0 791 127" fill="none" xmlns="http://www.w3.org/2000/svg">
<path d="M175.346 8.04132C171.562 6.14925 164.939 3.4688 160.525 2.36509C156.267 1.10371 147.28 0 140.815 0C134.193 0 124.733 1.10372 119.53 2.52277C114.326 3.94183 107.231 7.09527 103.762 9.30268C100.294 11.6678 94.9327 16.398 91.9369 19.7091C88.7834 23.1779 84.5262 29.3272 82.4765 33.4266C79.1654 39.8912 78.0617 40.9949 75.3812 40.0489C73.6469 39.4182 69.705 38.4722 66.7092 37.8415C63.7134 37.2108 59.1409 37.2108 56.4605 37.8415C53.9377 38.4722 49.3652 41.3102 46.6848 43.833C43.8467 46.5135 40.8509 51.4013 39.9048 54.7125C39.1165 57.8659 38.3281 62.1231 38.3281 64.1728C38.3281 66.0649 37.0668 68.1146 35.6477 68.5877C34.071 69.0607 31.7059 70.1644 30.4445 70.9528C29.1831 71.7411 26.1873 73.1602 23.8223 73.9485C21.2995 74.8946 19.4074 76.629 19.4074 77.8903C19.4074 79.1517 18.146 80.7285 16.727 81.3592C15.1502 81.9899 12.6274 83.5666 11.0507 84.9856C9.63165 86.247 8.3703 88.4544 8.3703 89.7158C8.3703 91.2925 9.63165 90.8195 12.6274 87.8238C15.1502 85.6163 19.8804 82.3052 23.3492 80.5708C26.8181 78.6787 32.8096 76.7866 36.7514 76.3136C41.0086 75.5253 47.4731 75.9983 52.5187 77.102C57.2489 78.2057 63.8711 80.8861 67.1823 82.9359C70.3357 84.828 75.0659 88.9275 77.7463 91.7656C80.2691 94.446 82.7919 98.0725 83.2649 99.6492C83.8956 101.857 84.6839 102.014 88.4681 100.753C90.8331 99.8069 94.4597 99.3338 96.6671 99.8068C98.8745 100.28 102.028 102.172 106.916 107.06L109.754 100.438C111.331 96.6534 114.957 90.8195 117.795 87.3507C120.633 83.8819 125.994 79.3094 129.936 77.2597C135.612 74.1062 139.081 73.3178 148.699 73.4755C158.948 73.4755 161.786 74.1062 169.197 78.2057C173.927 80.8861 180.864 86.247 184.491 89.8735C188.117 93.6576 192.217 98.2301 193.478 99.9645C194.74 101.699 197.262 107.375 198.997 112.578C200.889 117.939 202.308 125.035 201.677 136.229L193.793 132.445C187.014 129.292 184.175 128.819 175.503 129.607C169.512 130.08 162.89 131.814 159.421 133.706C156.11 135.599 153.429 137.333 153.429 137.806C153.429 138.279 157.529 138.121 162.574 137.648C167.62 137.018 174.873 137.333 179.445 138.437C184.018 139.54 190.64 142.694 203.096 152.47L208.615 146.32C211.611 143.009 216.656 139.54 219.652 138.752C222.648 137.806 227.851 137.018 236.996 137.018L234.788 131.972C233.212 128.188 232.896 124.877 234 119.674C234.788 115.416 236.996 110.844 239.676 108.164C243.46 104.379 244.091 102.172 244.564 93.1846C244.879 86.72 246.456 79.7824 248.506 75.0523C251.344 68.903 253.394 66.8532 258.755 64.3305C264.116 61.9654 266.481 61.65 270.895 62.9114C274.049 63.8575 277.991 66.6956 280.198 69.6914C282.248 72.3718 284.455 76.4713 285.086 78.6787C285.717 80.8861 286.82 82.9359 287.293 83.4089C287.924 83.8819 289.028 86.5624 289.974 89.4005C291.235 93.973 292.497 95.0767 299.434 97.2841C304.007 98.7032 309.525 101.699 311.89 103.906C314.255 106.114 317.409 110.686 321.666 120.462L323.558 115.732C324.504 113.209 324.977 108.479 324.82 105.483C324.504 102.487 323.243 98.2301 322.139 96.0227C320.878 93.8153 318.513 90.9772 316.778 89.4005C314.886 87.9814 313.782 86.4047 314.255 85.9317C314.729 85.4586 317.567 84.6703 320.562 84.0396C324.82 83.4089 327.342 84.0396 331.599 86.8777C334.595 88.9275 338.537 93.4999 340.114 96.8111C341.691 100.28 343.11 106.114 343.267 109.74C343.425 113.524 343.74 116.52 344.213 116.52C344.686 116.52 345.79 115.732 346.578 114.786C347.524 113.84 353.201 113.367 361.557 113.682C372.121 114.155 376.379 115.101 381.897 118.097C385.839 120.304 389.15 122.985 389.465 124.088C389.781 125.035 388.362 126.296 386.47 126.769C384.42 127.084 378.744 129.607 373.856 132.287C368.81 134.81 364.711 137.648 364.711 138.594C364.711 139.54 368.968 140.171 374.171 140.171C379.847 140.171 386.943 141.432 391.988 143.325C396.403 145.059 400.345 146.478 400.66 146.478C400.818 146.478 401.291 144.901 401.606 143.009C402.079 140.644 404.602 138.279 409.174 136.229C412.959 134.495 418.793 133.076 422.261 133.233C426.991 133.233 429.514 132.13 432.51 129.134C434.717 126.927 438.344 124.246 440.867 123.142C443.232 122.039 447.016 121.25 449.539 121.25C451.904 121.25 456.161 122.669 458.999 124.404C461.995 126.296 465.306 130.395 467.198 134.653C469.09 138.91 469.878 143.167 469.405 145.374C468.459 148.212 468.617 148.528 470.509 146.951C471.771 145.847 477.762 143.798 483.754 142.536C489.903 141.275 496.998 140.171 499.521 140.171C502.201 140.171 505.355 140.959 506.616 141.748C508.666 143.009 508.508 143.325 506.301 143.325C504.724 143.325 501.886 144.271 499.994 145.374C498.102 146.32 494.948 149.001 493.056 151.208C491.164 153.416 489.588 155.308 489.745 155.465C489.903 155.623 494.002 154.677 498.733 153.416C503.463 152.154 513.081 151.208 520.018 151.366C531.056 151.524 534.051 150.893 543.669 146.478C551.868 142.694 557.702 141.117 566.532 140.644C573.469 140.171 582.299 140.644 587.818 141.748C593.967 143.167 599.643 145.69 604.058 149.158C607.684 151.997 611.153 154.046 611.942 153.573C612.572 153.1 612.257 149.789 609.261 139.383L621.402 140.329C630.232 140.959 635.908 142.379 650.887 149.947L659.559 147.266C666.023 145.217 671.069 144.744 679.268 145.374C685.417 145.847 693.931 147.739 698.189 149.474C703.707 151.681 710.487 152.627 721.051 152.943C729.25 153.1 742.022 152.312 749.432 151.366C756.843 150.42 768.195 148.685 774.66 147.739C781.125 146.793 787.431 145.532 788.377 145.059C789.797 144.428 789.324 142.536 786.485 138.279C784.278 134.968 781.282 132.13 779.863 132.13C778.286 131.972 766.461 131.814 753.374 131.657C729.957 131.5 729.568 131.342 714.887 125.408L714.744 125.35C706.545 122.039 696.612 118.412 692.67 117.151C688.728 116.047 681.002 114.943 675.326 114.943C667.915 114.943 662.87 116.047 657.194 118.57C652.937 120.62 648.206 123.615 646.945 125.35C645.684 127.242 643.476 128.976 642.215 129.449C640.796 129.765 638.115 128.03 635.908 125.35C633.7 122.827 629.601 119.831 626.921 118.57C624.082 117.466 618.406 116.52 614.307 116.52C610.05 116.52 603.743 117.939 593.336 122.827L586.714 116.836C582.93 113.524 576.465 109.11 572.05 107.06C565.901 104.064 561.644 103.118 553.13 103.118C544.615 103.118 540.516 103.906 534.997 106.744C531.056 108.794 525.695 112.736 522.857 115.416C520.176 118.255 517.653 119.831 517.338 118.885C517.18 117.939 514.027 115.416 510.558 113.051C507.089 110.686 500.467 107.217 496.052 105.483C491.48 103.749 483.596 101.857 478.708 101.384C472.717 100.911 466.883 101.384 461.68 102.96C457.422 104.222 452.692 104.852 451.431 104.222C449.539 103.433 449.381 103.749 450.642 105.483C451.746 107.217 451.746 107.533 450.169 106.744C449.223 105.956 448.277 103.591 448.277 101.226C448.277 98.7032 447.489 95.5497 446.385 94.1307C445.282 92.5539 441.497 90.3465 438.029 89.0851C434.56 87.8237 431.091 87.1931 430.303 87.8238C429.514 88.4544 429.514 86.5623 430.303 83.4089C431.091 80.4131 431.564 75.3676 431.564 72.3718C431.564 69.376 431.091 64.1728 430.46 61.0194C429.83 57.5506 426.991 52.3474 423.838 48.7209C420.842 45.2521 418.004 42.887 417.531 43.6754C417.058 44.3061 416.427 43.5177 415.954 42.0987C415.481 40.5219 414.535 39.5759 413.589 40.0489C412.801 40.5219 412.013 40.2065 412.013 39.2605C412.013 38.3145 410.909 37.9991 409.647 38.4721C408.386 38.9452 407.282 38.7875 407.282 38.1568C407.282 37.3685 406.021 36.7378 404.602 36.5801C403.025 36.4224 397.98 36.1071 393.407 35.7917C388.677 35.4764 384.578 35.7917 384.262 36.5801C383.947 37.2108 382.37 37.6838 380.951 37.6838C379.374 37.6838 373.856 39.5759 368.653 41.7833C363.449 43.9907 358.246 46.1981 356.985 46.8288C355.881 47.4595 355.093 47.3018 355.25 46.3558C355.566 45.4097 354.935 42.5716 353.831 40.0489C352.728 37.5261 350.047 33.4266 347.682 30.9039C345.317 28.5388 340.902 25.8583 337.906 24.9123C334.911 23.9662 330.338 23.6509 327.658 24.1239C325.135 24.7546 320.247 27.1197 317.094 29.4848C313.782 31.8499 311.733 34.3727 312.363 35.0034C312.994 35.7917 312.206 35.9494 310.787 35.4764C309.21 35.0034 307.633 33.269 307.16 31.8499C306.845 30.2732 304.322 27.1197 301.642 24.7546C299.119 22.2319 294.231 18.7631 291.078 16.871C286.505 14.3482 282.248 13.5599 273.261 13.4022C263.485 13.2445 259.858 14.0329 252.763 17.5017C247.56 19.8668 242.041 24.2816 239.046 28.0657C236.207 31.6922 233.842 35.0034 233.842 35.7917C233.842 36.4224 232.896 38.3145 231.635 40.0489C229.427 43.2023 229.27 43.2024 225.643 39.7336C223.594 37.8415 219.494 35.7917 216.498 35.4764C213.03 34.8457 209.718 35.4764 207.826 36.8954C206.092 38.1568 204.042 39.2605 203.096 39.2605C202.308 39.2605 199.785 35.7917 197.578 31.2192C195.37 26.8044 191.113 20.6551 187.96 17.5017C184.806 14.1906 179.13 10.0911 175.346 8.04132Z" fill="white"/>
<path d="M258.268 64.488C261.737 62.9112 265.364 61.4922 266.152 61.4922C267.098 61.4922 270.094 62.5959 272.774 63.6996C275.455 64.8033 279.081 67.7991 280.816 70.3219C282.55 72.8446 284.442 76.6288 285.073 78.8362C285.861 80.8859 286.807 83.0934 287.438 83.5664C288.069 83.8817 289.172 86.7198 289.961 89.5579C291.222 93.9728 292.641 95.2341 299.579 97.4416C303.994 98.8606 309.512 101.856 312.035 104.064C314.4 106.114 317.553 110.844 318.973 114.313L321.811 120.619C324.491 113.209 325.122 108.636 324.806 105.641C324.491 102.487 323.387 98.2299 322.126 96.1802C321.022 93.9728 318.5 90.977 316.765 89.5579C315.031 88.1389 313.927 86.5622 314.242 86.0891C314.715 85.6161 317.869 84.6701 321.18 84.1971C326.225 83.4087 328.275 84.0394 332.217 87.0352C334.897 89.0849 338.524 93.4998 340.101 96.9686C341.835 100.437 343.254 106.271 343.254 109.898C343.412 113.682 343.885 116.678 344.2 116.678C344.673 116.678 345.777 115.889 346.565 114.943C347.669 113.84 353.188 113.524 361.544 113.84C372.108 114.313 376.523 115.259 382.042 118.254C385.826 120.462 389.137 122.985 389.452 124.088C389.768 125.192 388.349 126.453 386.456 126.769C384.564 127.242 378.888 129.764 373.843 132.287C368.797 134.968 364.698 137.806 364.698 138.752C364.698 139.54 368.955 140.329 374.158 140.329C379.834 140.329 387.087 141.59 391.975 143.482C396.548 145.216 400.489 146.635 400.647 146.635C400.805 146.635 401.278 145.059 401.751 143.009C402.224 140.644 404.746 138.437 409.161 136.387C412.945 134.652 418.779 133.233 422.248 133.233C426.978 133.233 429.659 132.287 432.497 129.291C434.704 127.084 438.488 124.404 440.854 123.3C443.219 122.196 447.16 121.408 449.526 121.408C451.891 121.408 456.148 122.827 458.986 124.561C461.982 126.453 465.293 130.553 467.185 134.81C469.235 139.067 470.023 143.324 469.392 145.374C468.604 148.37 468.762 148.685 470.496 146.951C471.757 146.005 477.749 143.955 483.741 142.694C489.89 141.432 496.985 140.329 499.508 140.329C502.188 140.329 505.342 140.959 506.603 141.905C508.653 143.167 508.653 143.324 506.288 143.482C504.711 143.482 502.031 144.27 500.139 145.374C498.246 146.478 495.093 149.158 493.043 151.366C491.151 153.415 489.732 155.465 489.89 155.623C490.047 155.781 493.989 154.834 498.719 153.573C503.607 152.312 513.068 151.366 520.005 151.523C531.2 151.523 534.038 151.05 543.656 146.478C551.855 142.851 557.847 141.275 566.519 140.644C573.456 140.171 582.286 140.802 587.805 141.905C593.954 143.324 599.63 145.847 604.045 149.158C607.671 152.154 611.298 154.046 611.929 153.731C612.559 153.258 612.244 149.789 611.14 146.162L609.248 139.54C630.219 141.117 635.895 142.536 642.202 145.689L650.874 150.104C666.01 145.216 671.056 144.743 679.255 145.532C685.404 146.005 693.918 147.897 698.176 149.474C703.536 151.681 710.632 152.785 720.25 152.942C728.133 153.258 741.536 152.469 750.208 151.366C758.88 150.262 771.336 148.528 777.8 147.266C784.423 146.162 789.941 145.532 790.099 145.847C790.256 146.005 786.472 147.582 781.427 149.001C776.381 150.42 764.871 153.258 755.726 155.307C746.739 157.357 731.129 160.195 721.038 161.614C708.109 163.506 696.599 164.137 680.832 163.506C659.703 162.876 658.442 163.033 650.874 166.818C646.617 168.867 639.521 171.705 635.106 172.809C630.849 173.913 623.596 175.017 619.024 175.017C614.451 175.017 607.356 173.913 603.257 172.494C596.161 170.129 595.688 170.129 594.269 172.809C593.481 174.386 590.17 178.485 587.174 181.796C584.02 185.108 579.133 188.576 575.979 189.523C572.983 190.469 567.307 191.099 563.365 191.099C558.635 190.994 552.854 189.155 546.021 185.581L535.773 180.22C508.338 195.829 506.761 196.302 496.354 196.302C487.84 196.145 483.583 195.356 477.591 192.361C473.334 190.153 467.343 185.896 464.504 182.9C461.509 179.747 457.725 174.701 455.99 171.39C452.994 165.556 452.994 165.556 447.949 167.764C445.111 168.867 439.908 170.444 436.439 170.917C432.97 171.548 426.19 171.232 421.144 170.286C416.099 169.498 409.004 167.291 405.377 165.556C401.751 163.822 398.44 162.403 398.282 162.403C398.124 162.403 397.494 164.61 396.863 167.448C396.39 170.286 394.34 175.49 392.448 178.958C390.398 182.427 385.983 187.157 382.672 189.365C379.361 191.73 372.739 194.726 367.851 196.145C363.121 197.564 353.976 198.667 347.354 198.667C340.889 198.51 331.271 197.406 326.068 196.145C320.865 194.726 312.823 191.415 307.935 188.892C303.205 186.211 297.687 182.743 295.795 181.008C292.326 178.17 292.168 178.17 284.758 182.112C278.135 185.738 275.77 186.211 265.364 185.581C258.899 185.265 252.435 184.477 250.858 183.846C248.65 183.058 247.389 184.319 245.182 189.523C243.605 193.307 239.821 198.983 236.983 202.452C233.987 205.763 227.838 210.966 223.265 213.804C218.693 216.8 209.705 220.899 203.083 223.107C194.569 225.945 187.946 227.049 179.117 227.049C172.337 227.049 163.034 225.945 158.146 224.526C153.416 223.107 145.217 219.638 140.014 216.8C134.811 213.962 126.927 207.812 122.512 203.082C117.94 198.352 113.525 191.888 112.263 188.103C110.371 182.112 109.741 181.639 106.903 183.216C105.168 184.004 98.8613 184.635 92.7121 184.319C84.0401 183.846 80.0983 182.743 75.3681 179.589C71.4263 177.066 67.7997 172.809 65.5923 168.237C63.7003 164.137 61.9659 158.619 61.9659 156.096C61.9659 153.415 61.8082 151.366 61.6505 151.366C61.4929 151.208 58.8124 152.469 55.659 153.888C51.7172 155.781 47.6177 156.254 40.6801 155.78C35.4769 155.307 27.7509 153.415 23.3361 151.523C19.0789 149.631 13.5604 146.162 11.1953 143.797C8.67249 141.432 5.20367 135.598 3.4693 130.868C1.26184 125.192 0.158142 118.097 0.000488281 110.371C0.000488281 101.383 0.788818 96.8109 3.15393 91.45C5.04602 87.5082 8.83014 81.9896 11.8259 79.3092C14.6641 76.6288 19.8672 72.8446 23.3361 71.1102C26.8049 69.3758 31.8504 67.3261 34.3732 66.6954C37.9996 65.907 38.788 66.0647 37.9996 67.4837C37.3689 68.4298 35.6345 69.3758 34.0578 69.2181C32.4811 69.2181 30.2737 70.3219 28.8546 71.5832C27.5933 73.0023 24.9128 74.4214 23.0207 74.8944C21.1286 75.3674 19.3942 76.6288 19.3942 78.0478C19.3942 79.3092 18.2905 80.886 16.7138 81.5166C15.1371 82.1473 12.6143 83.724 11.1953 84.9854C9.61853 86.4045 8.35718 88.4542 8.35718 89.8733C8.35718 91.45 9.61853 90.977 12.772 87.9812C15.1371 85.6161 19.8672 82.305 23.3361 80.5706C26.8049 78.8362 32.9541 76.9441 36.7383 76.3134C40.9954 75.6827 47.46 76.1558 52.5056 77.2595C57.3934 78.3632 63.858 80.8859 67.1691 82.9357C70.4802 84.9854 75.2104 88.9273 77.7332 91.7654C80.4136 94.6035 82.7787 98.23 83.2517 99.649C84.0401 102.014 84.8284 102.172 88.4549 100.753C90.82 99.9643 94.6042 99.4913 96.6539 99.9643C98.8613 100.437 102.015 102.329 103.749 104.064L106.903 107.217C111.475 96.8109 114.944 90.977 117.782 87.5082C120.62 84.0394 126.139 79.4669 129.923 77.2595C135.599 74.2637 139.068 73.4753 148.686 73.4753C158.935 73.633 161.773 74.2637 169.183 78.3632C174.071 81.0436 180.851 86.2468 184.635 90.031C188.262 93.8151 192.204 98.3876 193.465 100.122C194.726 101.856 197.249 107.533 199.141 112.736C201.033 118.097 202.295 125.192 202.137 129.291L201.822 136.387C187 129.449 184.162 128.976 175.49 129.607C169.499 130.238 162.876 131.814 159.408 133.864C156.096 135.598 153.416 137.49 153.416 137.963C153.416 138.279 157.516 138.279 162.561 137.648C167.764 137.175 175.017 137.49 179.432 138.594C184.162 139.698 190.627 142.851 195.199 146.478L203.083 152.469C211.755 143.167 216.643 139.698 219.639 138.752C222.792 137.963 227.838 137.175 231.149 137.175H236.983C233.199 128.188 233.041 125.034 233.987 119.831C234.775 115.416 237.14 111.001 239.663 108.321C243.447 104.379 244.236 102.329 244.709 93.3421C245.024 86.7199 246.443 79.7822 248.65 75.0521C251.173 69.3758 253.538 66.8531 258.268 64.488Z" fill="#FFC3C2"/>
<path d="M743.901 131.972C739.643 131.657 742.797 131.341 750.996 131.341C759.353 131.341 762.821 131.657 758.88 131.972C755.095 132.287 748.315 132.287 743.901 131.972Z" fill="#FFC3C2"/>
</svg>
